<svg xmlns="http://www.w3.org/2000/svg" viewBox="0 0 1440 320">
  <path fill="#0099ff" fill-opacity="1" d="M0,128L15,112C30,96,60,64,90,90.7C120,117,150,203,180,234.7C210,267,240,245,270,224C300,203,330,181,360,181.3C390,181,420,203,450,197.3C480,192,510,160,540,170.7C570,181,600,235,630,250.7C660,267,690,245,720,234.7C750,224,780,224,810,208C840,192,870,160,900,154.7C930,149,960,171,990,170.7C1020,171,1050,149,1080,122.7C1110,96,1140,64,1170,80C1200,96,1230,160,1260,202.7C1290,245,1320,267,1350,250.7C1380,235,1410,181,1425,154.7L1440,128L1440,0L1425,0C1410,0,1380,0,1350,0C1320,0,1290,0,1260,0C1230,0,1200,0,1170,0C1140,0,1110,0,1080,0C1050,0,1020,0,990,0C960,0,930,0,900,0C870,0,840,0,810,0C780,0,750,0,720,0C690,0,660,0,630,0C600,0,570,0,540,0C510,0,480,0,450,0C420,0,390,0,360,0C330,0,300,0,270,0C240,0,210,0,180,0C150,0,120,0,90,0C60,0,30,0,15,0L0,0Z"></path>
</svg>
